/* XPM */
static char *result[] = {
/* columns rows colors chars-per-pixel */
"32 32 135 2 ",
"   c #1C1816",
".  c #1C1916",
"X  c #1E1A17",
"o  c #171818",
"O  c #181818",
"+  c #191919",
"@  c #191A1A",
"#  c gray10",
"$  c #1B1B1B",
"%  c #1E1B18",
"&  c #1D1D1D",
"*  c #1E1E1E",
"=  c gray12",
"-  c #211914",
";  c #202020",
":  c #202121",
">  c gray13",
",  c #222222",
"<  c #252525",
"1  c gray15",
"2  c #272727",
"3  c #2D2826",
"4  c #2D2927",
"5  c #2E2A27",
"6  c #282828",
"7  c gray16",
"8  c #2A2A2A",
"9  c gray17",
"0  c #2C2B2B",
"q  c #2B2B2C",
"w  c #2C2C2C",
"e  c #2D2C2C",
"r  c #2C2D2D",
"t  c #2F2E2E",
"y  c #2E2F2F",
"u  c #2F2F2F",
"i  c #302C29",
"p  c #302D2A",
"a  c #312D2A",
"s  c #322D2B",
"d  c #332E2B",
"f  c #302F2F",
"g  c #36322F",
"h  c #302F30",
"j  c gray19",
"k  c #313030",
"l  c #323232",
"z  c #343434",
"x  c #343535",
"c  c #353535",
"v  c #353636",
"b  c #383432",
"n  c #393533",
"m  c #383737",
"M  c #3D3937",
"N  c #3E3A37",
"B  c #393939",
"V  c gray23",
"C  c #3F3B39",
"Z  c #3F3C39",
"A  c #3C3C3C",
"S  c gray24",
"D  c #3D3D3E",
"F  c #3E3E3E",
"G  c #3E3E3F",
"H  c #3F3F3F",
"J  c #431F07",
"K  c #431F08",
"L  c #432008",
"P  c #442008",
"I  c #45220A",
"U  c #46220A",
"Y  c #46230B",
"T  c #47230B",
"R  c #47240C",
"E  c #482209",
"W  c #48240C",
"Q  c #48250D",
"!  c #49250D",
"~  c #4D270E",
"^  c #4B2810",
"/  c #4D2911",
"(  c #672F09",
")  c #682F09",
"_  c #683009",
"`  c #693009",
"'  c #69300A",
"]  c #69310A",
"[  c #6D320A",
"{  c #6E330B",
"}  c #69330F",
"|  c #6E330C",
" . c #6A340F",
".. c #733811",
"X. c #46423F",
"o. c #4B433E",
"O. c gray25",
"+. c #414141",
"@. c gray26",
"#. c #434343",
"$. c #444445",
"%. c gray27",
"&. c #454546",
"*. c #464646",
"=. c #474646",
"-. c gray28",
";. c #4B4744",
":. c #4B4745",
">. c #4B4845",
",. c #4C4845",
"<. c #4C4846",
"1. c #4D4947",
"2. c #4E4A47",
"3. c #474848",
"4. c #484848",
"5. c #494949",
"6. c gray29",
"7. c #4B4A4A",
"8. c #4B4B4B",
"9. c #4C4C4C",
"0. c #4C4C4D",
"q. c #4C4D4D",
"w. c gray30",
"e. c #4D4D4E",
"r. c #4D4E4E",
"t. c #4E4E4E",
"y. c gray31",
"u. c #54504D",
"i. c #56524F",
"p. c #515151",
"a. c #535252",
"s. c gray33",
"d. c #555555",
"f. c #595451",
"g. c None",
/* pixels */
"g.g.g.g.g.g.g.g.g.g.g.g.g.g.g.g.g.g.g.g.g.g.g.g.g.g.g.g.g.g.g.g.",
"g.g.g.g.g.g.g.g.g.g.g.g.g.g.g.g.g.g.g.g.g.g.g.g.g.g.g.g.g.g.g.g.",
"g.g.g.g.g.g.g.g.g.g.g.g.g.g.g.g.g.g.g.g.g.g.g.g.g.g.g.g.g.g.g.g.",
"g.g.g.g...{ [ [ [ [ [ [ [ [ [ [ [ [ [ [ [ [ [ [ { ..g.g.g.g.g.g.",
"g...| ' ] ` ` ` ` ` ` ` ` ` ` ` ` ` ` ` ` ` ` ` ` ] _ ` | ..g.g.",
"g.| } E J L L L L L L L L L L L L L L L L L L L L K K E } | g.g.",
"g.` E -   . . . . . . . . . . . . . . . . . . . . .   - E ` g.g.",
"g._ K   o O O O O O O O O O O O O O O O O O O O O O o   K _ g.g.",
"g._ L . O O O O O O O O O O O O O O O O O O O O O O O . L _ g.g.",
"g._ L . O O O O O O O O O O O O O O O O O O O O O O O . L _ g.g.",
"g._ L . O O O O O O O O O O O O O O O O O O O O O O O . L _ g.g.",
"g._ L . O O O O O O O O O O O O O O O O O O O O O O O . L _ g.g.",
"g._ L . O O O O O O O O O O O O O O O O O O O O O O O . L _ g.g.",
"g._ L . O O O O O O O O O O O O O O O O O O O O O O O   L _ g.g.",
"g._ L . O O O O O O O O O O O O O O O O O O O O + O @ % P _ g.g.",
"g._ L   O O O O * $ # # & > > > > & # $ ; > ; > 1 , 2 a Y ) g.g.",
"g._ L X # = > : < 2 2 2 6 7 7 7 7 6 2 2 7 7 7 7 7 7 r n T ) g.g.",
"g.) I 3 w e e w w w w w w w w w w w w w w w w w w 0 c M T ) g.g.",
"g.) I 4 9 9 9 9 9 9 9 9 9 9 9 9 9 9 9 9 8 9 9 9 9 8 w i I ) g.g.",
"g.) U s h f f j f f f f f f f f f j l j t f f f f k B C R ) g.g.",
"g.) U d j f f k t e t f t f f f f j l j f f f f k m G Z R ) g.g.",
"g.) I 5 q 9 9 9 9 8 9 9 9 9 9 9 9 9 9 9 9 9 9 9 w u y p U ) g.g.",
"g.) Y g x z z z z z z z z z z z v z z z z z z c A F D N R ) g.g.",
"g.) Y b B B B B B B B B H *.V S O.A S +.@.@.@.O.*.#.4.C R ) g.g.",
"g.) W X.8.6.6.9.=.6.8.6.8.s.7.@.-.*.%.4.4.4.5.6.8.a.y.f./ ( g.g.",
"g.) ! >.6.w.e.d.p.q.r.r.e.t.q.4.w.w.9.4.3.&.$.9.0.e.e.u.^ ) g.g.",
"g._ ~ o.;.i.1.,.2.,.,.,.,.,.,.,.,.,.,.,.,.:.;.>.,.,.<.o.~ _ g.g.",
"g.|  .~ ! Q ! ! ! ! ! ! ! ! ! ! ! ! ! ! ! ! ! ! ! ! ! ~  .| g.g.",
"g...| _ ) ) ) ) ) ) ) ) ) ) ) ) ) ) ) ) ) ) ) ) ) ) ) _ | ..g.g.",
"g.g.g.g.g.[ [ [ [ [ [ [ [ [ [ [ [ [ [ [ [ [ [ [ [ [ g.g.g.g.g.g.",
"g.g.g.g.g.g.g.g.g.g.g.g.g.g.g.g.g.g.g.g.g.g.g.g.g.g.g.g.g.g.g.g.",
"g.g.g.g.g.g.g.g.g.g.g.g.g.g.g.g.g.g.g.g.g.g.g.g.g.g.g.g.g.g.g.g."
};
