/* XPM */
static char *result[] = {
/* columns rows colors chars-per-pixel */
"32 32 21 1 ",
"  c #212031",
". c #7D3E1D",
"X c #633831",
"o c #7D451D",
"O c #7F4A1D",
"+ c #465C5B",
"@ c #47585C",
"# c #5A5552",
"$ c #576A73",
"% c #577073",
"& c #656769",
"* c #6B696B",
"= c #933E3B",
"- c #8F5D2F",
"; c #955F30",
": c #85594B",
"> c #A14040",
", c #A34640",
"< c #F6BF58",
"1 c #F6B78C",
"2 c None",
/* pixels */
"22222222222222222222222222222222",
"22222222222222222222222222222222",
"22222222222222>>>>>2222222222222",
"2222222222222222,,,>222222222222",
"22222222222222>>,,,,>>2222222222",
"2222222222222>>,,,>>,>2222222222",
"2222222222222>,,>===>,2222222222",
"2222222222222,,==1111=2222222222",
"222222222222>,=111 1 22222222222",
"222222222222>,=111 1 22222222222",
"222222222222>,,=11 1 22222222222",
"22222222222>,,>=1111122222222222",
"2222222222>,,>==1111122222222222",
"2222222..OOOO@+++++++22222222222",
"2222222Oo---o@$$$$$$$22222222222",
"2222222O;;;;-@$%%%%%%$2222222222",
"2222222O;;;;-+@$%%%%%$2222222222",
"2222222<o;;;-++@$%%%%$2222222222",
"2222222<o;;;-++@$%%%%$2222222222",
"22222222O;;;-++@$%%%%$2222222222",
"22222222O;;oo++@$%%%%$2222222222",
"22222222O;;o+++@$$$$$$2222222222",
"22222222.o;o+++@@@@@@@2222222222",
"22222222..OOXXXXXX<<XX2222222222",
"22222222222&&&&&&&&&&22222222222",
"22222222222********&#22222222222",
"22222222222******&###22222222222",
"22222222222*****2####22222222222",
"22222222222*****2####22222222222",
"22222222222***222###222222222222",
"22222222222**2222##2222222222222",
"22222222222::2222oo2222222222222"
};