/* XPM */
static char *result[] = {
/* columns rows colors chars-per-pixel */
"47 57 5 1 ",
"  c #25131A",
". c #56587B",
"X c #A7ACBA",
"o c #CAE6F5",
"O c None",
/* pixels */
"OOOOOOOOOOOOOOOO               OOOOOOOOOOOOOOOO",
"OOOOOOOOOOOOOO  XXXXXXX........  OOOOOOOOOOOOOO",
"OOOOOOOOOOOO  XoooooooooX........  OOOOOOOOOOOO",
"OOOOOOOOOOO XoooooooooooooX........ OOOOOOOOOOO",
"OOOOOOOOOO XoooooooooooooooX........ OOOOOOOOOO",
"OOOOOOOOOO ooooooooooooooooo........ OOOOOOOOOO",
"OOOOOOOOO Xoooo.oooooo..ooooX........ OOOOOOOOO",
"OOOOOOOOO oooo...ooooo...oooo........ OOOOOOOOO",
"OOOOOOOO Xooo.....oooo.o..oooX........ OOOOOOOO",
"OOOOOOOO oooo.o.o.oooo.oo.oooo........ OOOOOOOO",
"OOOOOOOO oooooo.oooooo.ooooooo........ OOOOOOOO",
"OOOOOOO Xoooooo.oooooo.oooooooX........ OOOOOOO",
"OOOOOOO Xoooooo.oooooo.oooooooX........ OOOOOOO",
"OOOOOOO XoooooooooooooooooooooX........ OOOOOOO",
"OOOOOOO XoooooooooooooooooooooX........ OOOOOOO",
"OOOOOOO Xoooooo.ooooo...ooooooX........ OOOOOOO",
"OOOOOOO Xooooo..oooo..o..oooooX........ OOOOOOO",
"OOOOOOO Xoooo..ooooo.ooo.oooooX........ OOOOOOO",
"OOOOOOO Xoooo.oooooo..o..oooooX........ OOOOOOO",
"OOOOOOO Xoooo....oooo...ooooooX........ OOOOOOO",
"OOOOOOO Xooooooo.ooooo.oooooooX........ OOOOOOO",
"OOOOOOO Xoooooo..oooo...ooooooX........ OOOOOOO",
"OOOOOOO Xooooo..oooo..o..oooooX........ OOOOOOO",
"OOOOOOO Xooooo.ooooo.ooo.oooooX........ OOOOOOO",
"OOOOOOO XoooooooooooooooooooooX........ OOOOOOO",
"OOOOOOO XoooooooooooooooooooooX........ OOOOOOO",
"OOOOOOO XoooooooooooooooooooooX........ OOOOOOO",
"OOOOOOO XoooooooooooooooooooooX........ OOOOOOO",
"OOOOOOO XoooooooooooooooooooooX........ OOOOOOO",
"OOOOOOO XoooooooooooooooooooooX........ OOOOOOO",
"OOOOOOO Xooooooo.oo.oo.oooooooX........ OOOOOOO",
"OOOOOOO Xooooooo..o.o..oooooooX........ OOOOOOO",
"OOOOOOO Xoooooooo.....ooooooooX........ OOOOOOO",
"OOOOOOO Xooooooooo...oooooooooX........ OOOOOOO",
"OOOOOOO Xoooooooooo.ooooooooooX........ OOOOOOO",
"OOOOOOO Xoooooooooo.ooooooooooX........ OOOOOOO",
"OOOOOOO Xoooooooooo.ooooooooooX........ OOOOOOO",
"OOOOOOO XoooooooooooooooooooooX........ OOOOOOO",
"OOOOOOO XoooooooooooooooooooooX........ OOOOOOO",
"OOOOOOO XoooooooooooooooooooooX........ OOOOOOO",
"OOOOOOO XoooooooooooooooooooooX........ OOOOOOO",
"OOOOO  XXXXXXXXXXXXXXXXXXXXXXXXX........  OOOOO",
"OOOO XoooooooooooooooooooooooooooXXXXXXXXX OOOO",
"OOOO XoooooooooooooooooooooooooooX........ OOOO",
"OOO XXXXXXXXXXXXXXXXXXXXXXXXXXXXXXX........ OOO",
"OOO XoooooooooooooooooooooooooooooXXXXXXXXX OOO",
"OOO XoooooooooooooooooooooooooooooX........ OOO",
"OOO XoooooooooooooooooooooooooooooX........ OOO",
"OOO XoooooooooooooooooooooooooooooX........ OOO",
"OOO XoooooooooooooooooooooooooooooX........ OOO",
"O  XXXXXXXXXXXXXXXXXXXXXXXXXXXXXXXXX........  O",
" XoooooooooooooooooooooooooooooooooooXXXXXXXXX ",
" XoooooooooooooooooooooooooooooooooooX........ ",
" XoooooooooooooooooooooooooooooooooooX........ ",
" XoooooooooooooooooooooooooooooooooooX........ ",
" XXXXXXXXXXXXXXXXXXXXXXXXXXXXXXXXXXXXX........ ",
"                                               "
};
