/* XPM */
static char *result[] = {
/* columns rows colors chars-per-pixel */
"32 32 10 1 ",
"  c #221C1A",
". c #242234",
"X c #D95763",
"o c #FBF236",
"O c #FFFC40",
"+ c #BC4A9B",
"@ c #D77BBA",
"# c #F5A097",
"$ c white",
"% c None",
/* pixels */
"%%%%%%%%%%%%%%%%%%%%%%%%%%%%%%%%",
"%%%%%%%%%%%%%%%%%%%%%%%%%%%%%%%%",
"%%%%%%%%%%%%%%%%%%%%%%%%%%%%%%%%",
"%%%%%%%%%%%%%%%++%%%%%%%%%%%%%%%",
"%%%%%%%%%%%%%%@@@@%%%%%%%%%%%%%%",
"%%%%%%%%%%%%%@XXXX@%%%%%%%%%%%%%",
"%%%%%%%%%%%%@XooooX@%%%%%%%%%%%%",
"%%%%%%%%%%%@Xo$$$$oX@%%%%%%%%%%%",
"%%%%%%%%%%@Xo#o$$o#oX@%%%%%%%%%%",
"%%%%%%%%%@Xo###oo###oX@%%%%%%%%%",
"%%%%%%%%@Xo###O..O###oX@%%%%%%%%",
"%%%%%%%@Xo###O .. O###oX@%%%%%%%",
"%%%%%%@Xo###O  ..  O###oX@%%%%%%",
"%%%%%@Xo###O  ..O$  O###oX@%%%%%",
"%%%%@Xo$o#O  .O.OO$  O#o$oX@%%%%",
"%%%@Xo$$$o.......OO...o$$$oX@%%%",
"%%%@Xo$$$o...OO.......o$$$oX@%%%",
"%%%%@Xo$o#O..$OO.O...O#o$oX@%%%%",
"%%%%%@Xo###O..$O....O###oX@%%%%%",
"%%%%%%@Xo###O......O###oX@%%%%%%",
"%%%%%%%@Xo###O....O###oX@%%%%%%%",
"%%%%%%%%@Xo###O..O###oX@%%%%%%%%",
"%%%%%%%%%@Xo###oo###oX@%%%%%%%%%",
"%%%%%%%%%%@Xo#o$$o#oX@%%%%%%%%%%",
"%%%%%%%%%%%@Xo$$$$oX@%%%%%%%%%%%",
"%%%%%%%%%%%%@XooooX@%%%%%%%%%%%%",
"%%%%%%%%%%%%%@XXXX@%%%%%%%%%%%%%",
"%%%%%%%%%%%%%%@@@@%%%%%%%%%%%%%%",
"%%%%%%%%%%%%%%%++%%%%%%%%%%%%%%%",
"%%%%%%%%%%%%%%%%%%%%%%%%%%%%%%%%",
"%%%%%%%%%%%%%%%%%%%%%%%%%%%%%%%%",
"%%%%%%%%%%%%%%%%%%%%%%%%%%%%%%%%"
};
