/* XPM */
static char *_853deedb92f451acbc320c6846bd30df1ZsUu9tJAI4gG5t[] = {
/* columns rows colors chars-per-pixel */
"32 32 135 2 ",
"   c #010000",
".  c #0B0500",
"X  c #0C0C0C",
"o  c #110700",
"O  c #140900",
"+  c #1B0C00",
"@  c #111111",
"#  c #210F01",
"$  c #251100",
"%  c #2C1500",
"&  c #331600",
"*  c #381700",
"=  c #371A01",
"-  c #3B1B01",
";  c #3A2F2F",
":  c #3A3A2F",
">  c gray22",
",  c #431B00",
"<  c #491D00",
"1  c #442101",
"2  c #4D2301",
"3  c #532501",
"4  c #592500",
"5  c #572900",
"6  c #5C2B01",
"7  c #682600",
"8  c #642C01",
"9  c #6B2D00",
"0  c #702E01",
"q  c #663202",
"w  c #6C3301",
"e  c #6F3800",
"r  c #743401",
"t  c #7B3501",
"y  c #753A03",
"u  c #7C3B01",
"i  c #7C4003",
"p  c #444044",
"a  c #4B4B4B",
"s  c #6E6B6B",
"d  c #7E7E7E",
"f  c #823601",
"g  c #833C01",
"h  c #8B3C01",
"j  c #933E01",
"k  c #9A3D00",
"l  c #A13D08",
"z  c #844201",
"x  c #8C4302",
"c  c #8D4A01",
"v  c #934302",
"b  c #9B4401",
"n  c #954A02",
"m  c #984F02",
"M  c #9A4D01",
"N  c #9D4C01",
"B  c #9E4C00",
"V  c #9C4E00",
"C  c #9F4F03",
"Z  c #9B4905",
"A  c #9D4904",
"S  c #9F4A04",
"D  c #9D4B07",
"F  c #9E4A07",
"G  c #9C4B02",
"H  c #9E4B08",
"J  c #9F5201",
"K  c #9D5203",
"L  c #985407",
"P  c #9E5202",
"I  c #9B5009",
"U  c #A74001",
"Y  c #A54200",
"T  c #A04500",
"R  c #A14500",
"E  c #A34700",
"W  c #A04403",
"Q  c #A04703",
"!  c #A44400",
"~  c #A44700",
"^  c #A44602",
"/  c #A24706",
"(  c #A54604",
")  c #A24501",
"_  c #A14800",
"`  c #A34800",
"'  c #A14B00",
"]  c #A04A03",
"[  c #A24A02",
"{  c #A54802",
"}  c #A34C00",
"|  c #A34F00",
" . c #A24D02",
".. c #A04F03",
"X. c #A44C00",
"o. c #A04A04",
"O. c #A34B04",
"+. c #A64B05",
"@. c #A04D05",
"#. c #A34B02",
"$. c #A94900",
"%. c #A84801",
"&. c #AA4A00",
"*. c #AD4901",
"=. c #AE4B00",
"-. c #A84C00",
";. c #A84D02",
":. c #AC4D00",
">. c #A84F06",
",. c #AE4E04",
"<. c #A94C01",
"1. c #B64A02",
"2. c #B04D06",
"3. c #B64F04",
"4. c #B04C00",
"5. c #A05000",
"6. c #A55000",
"7. c #A55300",
"8. c #A55201",
"9. c #A25206",
"0. c #A75005",
"q. c #A45202",
"w. c #AB5000",
"e. c #AD5401",
"r. c #AB5005",
"t. c #AB5504",
"y. c #A95604",
"u. c #AB5704",
"i. c #AB5402",
"p. c #AC5804",
"a. c #B15300",
"s. c #B05302",
"d. c #B65003",
"f. c #B15500",
"g. c #B05505",
/* pixels */
"                                          . O             + .   ",
"  u :.A n v w 8   5.&.S b v z g   ,.A X.T X.x - . y.t 4 g z ,   ",
"  4 r.p.A N z 4   b a.{ Z v h v   e.3.1./ b g $ $ f.9.4.G x &   ",
"  8 -.d.8.v u = . 8 e.S k A z f + r l ~ b S u %   s.~ T v u 8   ",
"  u N ,.S h t 8   3 [ b S h h u   j P ~ v h f 2   v A b n g w   ",
"  T { ~ h j t 3   u j k G v u 6 . b i.[ Z x g u . 8 [ S v g w O ",
"  v b 9.k f t r   +.} >.b c z , # S S i.x x f f . 2 X.A S t 9 $ ",
"  m S v A h f f   *.y.Y x c t * & b n n k v x t . g X.v x r 8 o ",
"  Z v A f h g r   L A v v c t c   N [ k k v g t   N y.S h w 4   ",
"  c Y v G h g r . } [ [ j h c f o T Y v j h g g   [ O.N h r -   ",
"  v X.{ T Z g t   7.~ 7.j v z u   r.l [ v j g r   v 5.r.j r 2   ",
"  v } n T x u f   S } X.v x g u   n A j v b z u . v X.Y x r 2   ",
"  h I [ x b g u   x A b k x u y   { T m q.v g i   N [ { x w 3   ",
"  b ~ v n j f r   S -.k v z t r   x -.T P D z u   m } v z q $   ",
"  v ~ b v v u u . 8 b b v v 0 <   3 v [ T x i u   { &./ h w O   ",
"  A S X X X 8 r   r n S n g r &   & ( g.n x h t   e.} A v r O   ",
"  v X > ; @ p =   [ D ~ n x r +   3 7.i.A v u r   &.k k b g q   ",
"  Z X : X a d .   v S T Z x r 3   r r./ / j h r   ~ k n v x y % ",
"  j X @ a d s . . 7.T 9.h h f z . u Y T N j f 8   k ~ S Z x r & ",
"  v z > d s o + o A N @.Z v f y   c 4.@.S x f u   c y.T v z q O ",
"  { j w - % & 4   9.T T Z j g u   9.F A @.h t u   &.T k x u 6 X ",
"  A S v t w 8 t   ~ v Z j v u u   S T b h h f <   N S A h w 3   ",
"  x { T h v u u   7 n b j f i e   D 7.n j x r % . @.0.D h r &   ",
"  A k v j h y r o = >.S h x r 8   8 y.N N x r O O I A m n r +   ",
"  j S [ n j r 8   2 } A S v r =   8 H X.S f r #   - S b x w -   ",
"  b ~ N h v t r   6 T >.n x u 3   6 4.&.N h 0 +   & { ( h w 6   ",
"  j [ T G g w r   % 8.N v v g w   6 b A T h u % . r O.b g q -   ",
"  r X.n v h r ,   4 i.{ v v u r   [ b b h x r h   j S T x w +   ",
"  n i.v g t y -   r n v v z u u   v h v n c t r   b / v t 6 +   ",
"  g h r w 8 6 =   9 h u y r 6 9   t g u t t g w O - u y 8 4 %   ",
"  u y 6 3 % - O   8 1 , 2 1 - 1   # $ 3 8 6 8 8 O o 8 1 1 , +   ",
"                                          . + o                 "
};
