/* XPM */
static char *_0acda32b3d94a55fc8371f8e94e3e18jUWHkVwfp6UO8Pok[] = {
/* columns rows colors chars-per-pixel */
"32 32 134 2 ",
"   c #000200",
".  c #010C00",
"X  c #021301",
"o  c #041903",
"O  c #072306",
"+  c #082407",
"@  c #0B250A",
"#  c #0D2B0C",
"$  c #112E0F",
"%  c #0F320D",
"&  c #11340E",
"*  c #122211",
"=  c #142C13",
"-  c #1A2C19",
";  c #153413",
":  c #183317",
">  c #153A13",
",  c #193817",
"<  c #1F351E",
"1  c #1C3B1B",
"2  c #2F2F2F",
"3  c #253D24",
"4  c #2D352C",
"5  c #2B3D2B",
"6  c #363F36",
"7  c #3C3C3C",
"8  c #1E411C",
"9  c #254324",
"0  c #264924",
"q  c #284927",
"w  c #264328",
"e  c #2D432C",
"r  c #2D4A2C",
"t  c #275027",
"y  c #344532",
"u  c #384637",
"i  c #344A33",
"p  c #3D443B",
"a  c #375536",
"s  c #385037",
"d  c #395139",
"f  c #3D5B3D",
"g  c #40463F",
"h  c #433F43",
"j  c #434443",
"k  c #444B45",
"l  c #484648",
"z  c #454949",
"x  c #4D4D4D",
"c  c #435043",
"v  c #455946",
"b  c #495A46",
"n  c #4C554C",
"m  c #4E594E",
"M  c #514F51",
"N  c #525353",
"B  c #585756",
"V  c #545B54",
"C  c #5A5B54",
"Z  c #57545A",
"A  c #585758",
"S  c #5C5C5C",
"D  c #625D5F",
"F  c #566355",
"G  c #546851",
"H  c #576158",
"J  c #5E635E",
"K  c #60615F",
"L  c #69695F",
"P  c #5E5D60",
"I  c #5D6261",
"U  c #636363",
"Y  c #696366",
"T  c #656A65",
"R  c #6A6A64",
"E  c #646569",
"W  c #6A6669",
"Q  c #6C6B6B",
"!  c #706B6C",
"~  c #6D726E",
"^  c #72726E",
"/  c #7C7768",
"(  c #7B7B6E",
")  c #6E6E72",
"_  c #6E6E7C",
"`  c #726D71",
"'  c #7F6C75",
"]  c #716E78",
"[  c #6E7271",
"{  c #737473",
"}  c #787575",
"|  c #757A75",
" . c #7A7A75",
".. c #747679",
"X. c #787679",
"o. c #757B7A",
"O. c #7B7B7B",
"+. c #80767A",
"@. c #807D7E",
"#. c #827E7F",
"$. c #768479",
"%. c #7D807B",
"&. c #7E827D",
"*. c #81817C",
"=. c #80867D",
"-. c #85857E",
";. c #8A8A7D",
":. c #7A7A81",
">. c #7E7A82",
",. c #7E7F81",
"<. c #787884",
"1. c #807F81",
"2. c #887E81",
"3. c #7F8182",
"4. c #7D8583",
"5. c #7C8585",
"6. c #7F8888",
"7. c #818181",
"8. c gray51",
"9. c #838383",
"0. c #858381",
"q. c #858387",
"w. c #878787",
"e. c #868885",
"r. c #898986",
"t. c #828A8A",
"y. c #86898B",
"u. c #8A888B",
"i. c #898A8A",
"p. c #8E8C8A",
"a. c #96968E",
"s. c #909395",
"d. c #959596",
"f. c #9C9398",
/* pixels */
"  . = p <   ; w     C i X 5 *     4 x A S A S #   J O.O.m .     ",
".   m w.*.>.O.{ O     X T O.{ r   . 8 + .     . 0 i.p.W D ^ =.A ",
":   w.f.9.,.Q O.O.1.3.Q &.| P ! d . q 4.#.{ } &.w.9.O.{ { <.1.A ",
"A   ,...9.O.O.O.O.o.&.O.[ ~ U E @ + { O.%.y...O.O.O.o.O.O.! O.N ",
"N   ..O.O.{ { ^ R } e.{ ! ..E U   i { i.r.X.{ U { Q Y Q ~ { { h ",
"- X { { Q E z A U Q Q ^ E S C 5   d | O.^ I E D U U U E { Q W j ",
"@ = E Q E J J S D U E Y U A U @ o U { [ Q U S A j e J U I Y Q 7 ",
"@ , o.Q e k I n e 6 E Q Q U U # . m 6.} p # # p =   . # m U Q A ",
"  X O o           X                   o 1 =   #   ; ; r O O X . ",
"Q { q + F b s 1 . w.9.O.| 9.}  .9 9 w.5.9.{ { # o b 9.9.o.O.O.{ ",
"X.` ,.O.U | X.O.  w.9.O.O.X.O.X.t...&.| O.{ ` 9.F . 9.-.s.( O.{ ",
"O.[ O.{ O.X.X.1.V +.O.O.! { ....o.O.:.9._ Q ) ! {   O.&.O.X.U ..",
"{ O.W ^ Q { Q b H  .{ Q Q W U Q U ~ ! Q U Q J U T   X.o.T C U O.",
"{ Q { ) ! Q ^ y u Q S U S C A C S S C U U D U D E . Q Q E S B U ",
"Q E T Q Q U S S y N S A S A 6 j j x A S D U U J Q   Q S W , ; e ",
"W P Q J E K S U   O # 1 @ .           @ $ : Q Q , % U @     . X ",
"  3 Y Q E [ I 3   + X     .       . .     o X       # J ( Q 3   ",
"  .   + 0 S X.. t R [ r H { 0 o     f F G | X.e.1.9.#.y.O.Q { 5 ",
"  r X.v & .   , ,.O.;.&.{ Q { ; + o d.d.&.9. .9.O.O.O.9.O.^ | N ",
"# r.w.9.O.4.9.[ ..q.O.^ Q  .[ ! { & w.w.T *.O.Q | { X.{ Q ` { N ",
"< y.9.| O.O.O.O.9.o.O.O.~ T Q U {   $.o.O.O.J O.Q *...T I A Q E ",
"R &.O.{ } ^ O.{ U | E ~ $.W U U # i { Q U Q Q W E S D U I U U S ",
"n { Q Q S E U S ) I J Q W B E S   I L Q E U D J D S p . @ K U p ",
"  B Q Q O.U K A E Q W Q J R D U   U i J k 5 U D U m X o .   o = ",
"  . C V       .     # ) ] V n ,           X   o   . | o.O.) X   ",
"@     @  .+.[ ,   ' O.v # o   o O. .n m & a T 1 . O.9. .O.O.{ Q ",
"{ % { O.O...U ; r &.9...| ~ O.O.O.O.O.O.#.X.Y { o ~ 9.O.O.{ &.~ ",
"| 9.O.O.X.Y T # / 9.>.O.O.{ O.O.~ r.O.[ O.{ { ~ > V O.2.[ ) ) I ",
"^ a.O.O.Y Q S 1 Q X.^ ) ! {  .O. .O.{ [ { ) ^  .+ N | W U S S ` ",
"O.X.{ [ { U E $ Y Q ! L X...) X.o.^ Q } ^ ^ U Z . U ~ Z x x z Q ",
"{ { ` ~ E S C   y N ~ ! } W ~ | o.{ ..Q T E S l   Z N 7 = * o 5 ",
"N 2 z j j j x . . X X g n j 7 M 7 j x x M N N A . . # @ X   .   "
};
