/* XPM */
static char *_c219d4a34414803a3841a8c89d5d0c2cuc4iqSnwvx6xv7D[] = {
/* columns rows colors chars-per-pixel */
"32 32 115 2 ",
"   c #030100",
".  c #0B0502",
"X  c #0F0803",
"o  c #100703",
"O  c #140A04",
"+  c #1A0D06",
"@  c #1E1006",
"#  c #221107",
"$  c #2B1407",
"%  c #251308",
"&  c #2B1509",
"*  c #2D180B",
"=  c #31170A",
"-  c #341A0C",
";  c #3A1E0E",
":  c #3B200E",
">  c #3C2110",
",  c #411E0C",
"<  c #44220E",
"1  c #49260F",
"2  c #4E280F",
"3  c #452411",
"4  c #4A2611",
"5  c #452811",
"6  c #4E2912",
"7  c #542B13",
"8  c #5B2E14",
"9  c #5C3115",
"0  c #5E3218",
"q  c #622E16",
"w  c #633216",
"e  c #6B3516",
"r  c #693817",
"t  c #653519",
"y  c #6A361A",
"u  c #673B19",
"i  c #6C3A1B",
"p  c #753916",
"a  c #71371A",
"s  c #733C1B",
"d  c #7B3D1B",
"f  c #763F20",
"g  c #75401D",
"h  c #7C421C",
"j  c #7E4321",
"k  c #833E1B",
"l  c #8B3E1B",
"z  c #884116",
"x  c #84441D",
"c  c #8B451D",
"v  c #85491E",
"b  c #8C491E",
"n  c #94451D",
"m  c #9A451A",
"M  c #944B1D",
"N  c #9B4C1E",
"B  c #97521E",
"V  c #9B511F",
"C  c #A54D1E",
"Z  c #A3521F",
"A  c #AA561F",
"S  c #AF591F",
"D  c #B2581E",
"F  c #834622",
"G  c #8D4622",
"H  c #864A21",
"J  c #8C4B22",
"K  c #8A4A28",
"L  c #944621",
"P  c #9D4623",
"I  c #944C22",
"U  c #9A4D22",
"Y  c #954F29",
"T  c #9B4D29",
"R  c #955224",
"E  c #9C5324",
"W  c #9D5926",
"Q  c #945428",
"!  c #9C5529",
"~  c #9D5B2C",
"^  c #A34D23",
"/  c #AA4923",
"(  c #AD4F29",
")  c #A45424",
"_  c #AB5524",
"`  c #A35A25",
"'  c #AB5A25",
"]  c #A35529",
"[  c #AC552A",
"{  c #A55A2A",
"}  c #AC5B2A",
"|  c #B25624",
" . c #B35925",
".. c #B85E27",
"X. c #B25628",
"o. c #B25C2B",
"O. c #B95C2A",
"+. c #B45E30",
"@. c #AD622A",
"#. c #B46127",
"$. c #BA6125",
"%. c #B3612C",
"&. c #BA622C",
"*. c #AA6430",
"=. c #B66230",
"-. c #BB6431",
";. c #B26B34",
":. c #C35C24",
">. c #C2632B",
",. c #D2762E",
"<. c #CD6D32",
"1. c #CF6639",
"2. c #C77434",
"3. c #C87035",
"4. c #C87832",
/* pixels */
"  O.x N J x U & # o # * , & X + 7 &.] } ) 9 x 3 . . .     = .   ",
"+ ..r J x d L * q 1.L d 7 d ) $ 0 @.n C U 8 F 7 O , x ..` ) >.A ",
"o $.w J x z I - 7 L t k E G F * 9 } N _ T 3 s 8 & , X.D x d X.k ",
"  @.- s x b R ; 3 G q I ' ) Y - ; &.E O.I 0 F 7 = < ^ ) x s ^ M ",
"  { 1 w c E ` > ; M G o.>.o.T & * &.I ] J i I 9 & w B E x i I ) ",
"X ) w 7 E o.{ 5 ; ` Y ' -.{ T @ + o.n R h s ! 7 + c [ ' J s Y &.",
"o Y i 9 ` &.c - X ) m ) @.` U O   [ L  .h g U ,   ) O.] x d R &.",
"+ 7 ; + 1 p ; * . _ E ' S _ ] O   t 6 < = 4 < @ + ) %.` g x E O.",
"  .   * # +   X   #.) ) O.^ M o   O   + @         _ ..' k G =.} ",
"$ :.O._ Z z J 9 + | ) N ^ L j % O 4.%.$.] } o.s O ..| Q k J ' W ",
"* ' ^ T b E K 7 O 3.;.' ..I s -   ` ' ' K K ' ,   } } I s Q ] ! ",
"O { O.[ x c h 3   %.@.W ^ Q y ;    .o.@.H j L & & .._ b t ] ' ! ",
"  ' } o.b I f -   -.} J H c e 5 X ' O.%.d i k * O D _ L a m ^ c ",
". [ %.@.J b k *   / A g s e e 7 # ' ' ^ a s p &   c | I g { ' V ",
"X G %.@.M I s * % O.m 6 < 8 i w &  .[ T h F w %   d X.I F p k / ",
"  U [ { B Q t # O a < . o $ < 9 % L Y ~ J Q 0 & . q 4 & & # & & ",
"  F ) R I G d - X   o X 4 > . % . Q E W H W y ; O + +   O > ; O ",
"o M I E ) c F ; o :.d N } &.} 4 + [ _ ] h N n ; + & j ] [ ) -.Q ",
": @.b U ` c c 1   ^ ' y J ^ ' s + | ( ) c U [ 8 + 0 &.{ s x I t ",
"6 W g ] R B h <   l U e k I ~ 7 X :.] | ) { ] i . d } ] b J L 7 ",
", L g E U M M <   _ k 8 s I ] 4   +.@.o.| ' I 7 o w R E d s m 7 ",
"+ G v _ S ' ) 8 X ` g 8 d B Z 9   O.' ..| ' x 4 + 4 V R d v L 8 ",
"+ j u G J } E <   Z s w F ' [ 8   T I >.[ U d , + e B M d F I w ",
"  9 - ; - 5 7 o   Z g i h Y ] 8   5 - - < % - #   N c x w i Y x ",
"    7 r *   X     ` x u F ] { w   % .   .   +     ) 8 i w s ! R ",
"  :.o.o.<.I r > O Q ` t s I ] y   ,.' ) U O.P q . E 6 g g g E } ",
"% ^ ' ] [ -.! 6 @ H } e s z ' s X ` } &.G { F . = v w s x c ) =.",
"> h ' U } *.i O   G ] t t b ' x @ 2.R ) c ` w X 4 x y G E R ) =.",
"1 b %.R { b e #   y o.i t E } s   ' E Q c { w . 7 G r b ) ) ` ' ",
"7 c ' I ) x 2 - X 8 } 0 s ) ) 1 & ) M W R A 7 . 7 R 0 H ) U ! W ",
"2 h _ c U c 1 - . s W w v ) n - - ' U ) R T w + & W r H +.c I J ",
"> J ^ c b x 1 ; + ` J w x ) 8 + 4 ' ] ] M c p *   g 7 I _ I x I "
};
