/* XPM */
static char *_6c5e598e5ab4b19ad438ecc45bc3060DZbceIBQNKxPM5Xs[] = {
/* columns rows colors chars-per-pixel */
"32 32 37 1 ",
"  c None",
". c #0A0A09",
"X c #101010",
"o c gray8",
"O c #171715",
"+ c #181616",
"@ c gray11",
"# c #1D1D1C",
"$ c #332F33",
"% c #363631",
"& c #484548",
"* c #4B4B49",
"= c #4F4F4A",
"- c #525052",
"; c #545452",
": c #5A595A",
"> c #5A5A5A",
", c #6F6F6C",
"< c #7D7D79",
"1 c #81817B",
"2 c #80807E",
"3 c #82847D",
"4 c gray51",
"5 c #868783",
"6 c #898985",
"7 c gray54",
"8 c #8B8E8E",
"9 c #959595",
"0 c #999797",
"q c #959899",
"w c #9D9B9B",
"e c #A2A2A2",
"r c #A5A6A5",
"t c #AEA6A6",
"y c #A9A9A9",
"u c #B3A8A8",
"i c #B3AFAF",
/* pixels */
"r      oe      7#      Xy      o",
"t      oi      6+      .q      #",
",9    *><u    =>2w    %:20    ;>",
"8      -4      &3      %5      >",
"                                ",
"                                ",
"                                ",
"                                ",
"                                ",
"                                ",
"                                ",
"                                ",
"                                ",
"                                ",
"                                ",
"                                ",
"                                ",
"                                ",
"                                ",
"                                ",
"                                ",
"                                ",
"                                ",
"                                ",
"                                ",
"                                ",
"                                ",
"                                ",
"                                ",
"                                ",
"                                ",
"                                "
};
